<?xml version="1.0" standalone="no"?>
<!DOCTYPE svg PUBLIC "-//W3C//DTD SVG 20010904//EN"
 "http://www.w3.org/TR/2001/REC-SVG-20010904/DTD/svg10.dtd">
<svg version="1.0" xmlns="http://www.w3.org/2000/svg"
 width="260.000000pt" height="260.000000pt" viewBox="0 0 260.000000 260.000000"
 preserveAspectRatio="xMidYMid meet">
<metadata>
Created by potrace 1.11, written by Peter Selinger 2001-2013
</metadata>
<g transform="translate(0.000000,260.000000) scale(0.100000,-0.100000)"
fill="#000000" stroke="none">
<path d="M0 1300 l0 -1300 1300 0 1300 0 0 1300 0 1300 -1300 0 -1300 0 0
-1300z m1612 -36 c26 -8 65 -29 88 -45 l42 -31 -43 -44 -43 -44 -26 25 c-38
36 -96 57 -161 56 -115 0 -186 -66 -176 -164 7 -74 42 -103 192 -156 130 -46
166 -65 207 -108 64 -67 78 -189 32 -281 -43 -86 -118 -135 -233 -150 -118
-16 -232 14 -318 84 l-44 36 43 38 c24 22 46 39 49 40 4 0 21 -13 38 -29 43
-40 97 -64 157 -69 208 -18 290 211 109 300 -16 9 -74 30 -128 48 -56 18 -116
46 -140 64 -76 58 -107 147 -86 247 35 160 241 246 441 183z m-1252 -199 l0
-195 240 0 240 0 0 195 0 195 60 0 60 0 0 -460 0 -460 -60 0 -60 0 -2 213 -3
212 -235 0 -235 0 -3 -213 -2 -212 -60 0 -60 0 0 460 0 460 60 0 60 0 0 -195z"/>
</g>
</svg>
